<svg width="156" height="155" viewBox="0 0 156 155" fill="none" xmlns="http://www.w3.org/2000/svg">
<g filter="url(#filter0_i_18_2)">
<ellipse cx="78" cy="77.5" rx="78" ry="77.5" fill="#419A4A"/>
</g>
<path d="M153.5 77.5C153.5 118.906 119.713 152.5 78 152.5C36.2873 152.5 2.5 118.906 2.5 77.5C2.5 36.0938 36.2873 2.5 78 2.5C119.713 2.5 153.5 36.0938 153.5 77.5Z" stroke="black" stroke-width="5"/>
<circle cx="39" cy="85" r="15" fill="#29322A"/>
<ellipse cx="123" cy="72.5" rx="15" ry="14.5" fill="#29322A"/>
<circle cx="70" cy="103" r="15" fill="#29322A"/>
<rect x="114.625" y="60.1183" width="30" height="55" transform="rotate(60.7935 114.625 60.1183)" fill="#29322A"/>
<rect x="77.736" y="90.597" width="29.9976" height="40" transform="rotate(120.992 77.736 90.597)" fill="#29322A"/>
<defs>
<filter id="filter0_i_18_2" x="0" y="0" width="156" height="159" filterUnits="userSpaceOnUse" color-interpolation-filters="sRGB">
<feFlood flood-opacity="0" result="BackgroundImageFix"/>
<feBlend mode="normal" in="SourceGraphic" in2="BackgroundImageFix" result="shape"/>
<feColorMatrix in="SourceAlpha" type="matrix" values="0 0 0 0 0 0 0 0 0 0 0 0 0 0 0 0 0 0 127 0" result="hardAlpha"/>
<feOffset dy="4"/>
<feGaussianBlur stdDeviation="2"/>
<feComposite in2="hardAlpha" operator="arithmetic" k2="-1" k3="1"/>
<feColorMatrix type="matrix" values="0 0 0 0 0 0 0 0 0 0 0 0 0 0 0 0 0 0 0.25 0"/>
<feBlend mode="normal" in2="shape" result="effect1_innerShadow_18_2"/>
</filter>
</defs>
</svg>
